<?xml version="1.0" encoding="UTF-8"?> <svg xmlns="http://www.w3.org/2000/svg" width="214" height="20" viewBox="0 0 214 20" fill="none"> <path fill-rule="evenodd" clip-rule="evenodd" d="M34.4092 1.70771e-06C34.5499 -0.000337204 34.6853 0.0497801 34.7895 0.140532L41.6657 6.13802L45.2462 9.20399C45.4934 9.4155 45.4989 9.78526 45.2583 10.0035L42.7903 12.2431L35.8911 18.9675C35.7854 19.0703 35.6415 19.1284 35.4914 19.1288L26.9607 19.1494C26.4558 19.1506 26.204 18.5617 26.5637 18.2208L35.2788 9.96239C35.3932 9.85401 35.449 9.71077 35.4469 9.56828L33.6347 7.73512L25.9755 0.960864C25.5979 0.626877 25.8427 0.0207099 26.3556 0.019465L34.4092 1.70771e-06Z" fill="url(#paint0_linear_336_44)"></path> <path fill-rule="evenodd" clip-rule="evenodd" d="M13.5185 13.9285C13.3218 14.1461 13.3365 14.4736 13.5518 14.6741L18.0776 18.8873C18.311 19.1045 18.6865 19.0876 18.8978 18.8503L34.8771 0.894888C35.1907 0.542606 34.9297 -0.00116702 34.4475 1.88137e-06L26.35 0.019569C26.1874 0.0199633 26.0329 0.0879045 25.9261 0.205936L13.5185 13.9285Z" fill="url(#paint1_linear_336_44)"></path> <path fill-rule="evenodd" clip-rule="evenodd" d="M4.30708 4.81451L9.10179 0.217882C9.20708 0.116935 9.34957 0.0600949 9.49829 0.0597352L17.8489 0.0395527C18.351 0.0383354 18.6041 0.621796 18.2499 0.964248L9.68905 9.24153C9.64744 9.28178 9.61372 9.32667 9.58796 9.37453L18.8426 18.243C19.1982 18.5838 18.9482 19.1682 18.4462 19.1694L17.911 19.1707C17.9071 19.1708 17.9034 19.1708 17.8995 19.1708L10.3233 19.1891C10.3197 19.1891 10.3161 19.1891 10.3124 19.1891L10.1824 19.1893C10.0288 19.1898 9.88163 19.1298 9.77503 19.0233L0.157706 9.41831C-0.0572933 9.20355 -0.0517788 8.86215 0.170059 8.65396L4.15064 4.9184C4.19764 4.87427 4.25067 4.83969 4.30708 4.81451Z" fill="url(#paint2_linear_336_44)"></path> <path d="M52.4567 18.9712H57.2329V0.312012H52.4567V18.9712Z" fill="url(#paint3_linear_336_44)"></path> <path d="M65.5363 18.9712H70.3125V4.2265H76.2349V0.312012H59.6138V4.2265H65.5363V18.9712Z" fill="url(#paint4_linear_336_44)"></path> <path d="M83.5593 9.52535C83.5593 15.0057 87.7077 19.2855 93.7665 19.2855C99.8256 19.2855 103.974 15.0057 103.974 9.52535C103.974 4.17547 99.8256 0 93.7665 0C87.7077 0 83.5593 4.17547 83.5593 9.52535ZM88.4993 9.52535C88.4993 6.47201 90.6825 4.17547 93.7665 4.17547C96.8508 4.17547 99.034 6.47201 99.034 9.52535C99.034 12.7092 96.8508 15.1101 93.7665 15.1101C90.6825 15.1101 88.4993 12.7092 88.4993 9.52535Z" fill="url(#paint5_linear_336_44)"></path> <path d="M111.28 18.9698H116.247L123.125 0.310547H118.021L114.527 10.9319C114.145 12.1063 113.79 13.9332 113.79 13.9332H113.736C113.736 13.9332 113.381 12.1063 112.999 10.9319L109.56 0.310547H104.375L111.28 18.9698Z" fill="url(#paint6_linear_336_44)"></path> <path d="M125.004 18.9698H137.613V15.0553H129.78V11.532H135.73V7.61755H129.78V4.22504H137.231V0.310547H125.004V18.9698Z" fill="url(#paint7_linear_336_44)"></path> <path d="M140.675 18.9698H145.451V12.6803H147.689L151.155 18.9698H156.477L152.683 12.4455C152.219 11.6625 151.946 11.3233 151.946 11.3233V11.2711C153.884 10.3317 154.867 8.16566 154.867 6.18215C154.867 3.46824 153.475 1.56317 151.264 0.754073C150.418 0.441043 149.463 0.310547 147.47 0.310547H140.675V18.9698ZM145.451 8.76582V4.22504H147.061C147.853 4.22504 148.426 4.30323 148.862 4.48602C149.763 4.8252 150.009 5.52994 150.009 6.46928C150.009 7.95673 149.053 8.76582 147.525 8.76582H145.451Z" fill="url(#paint8_linear_336_44)"></path> <path d="M157.362 9.52535C157.362 15.0057 161.511 19.2855 167.569 19.2855C173.628 19.2855 177.777 15.0057 177.777 9.52535C177.777 4.17547 173.628 0 167.569 0C161.511 0 157.362 4.17547 157.362 9.52535ZM162.302 9.52535C162.302 6.47201 164.486 4.17547 167.569 4.17547C170.653 4.17547 172.837 6.47201 172.837 9.52535C172.837 12.7092 170.653 15.1101 167.569 15.1101C164.486 15.1101 162.302 12.7092 162.302 9.52535Z" fill="url(#paint9_linear_336_44)"></path> <path d="M180.815 18.9698H185.591V10.2794C185.591 9.105 185.373 7.09559 185.373 7.09559H185.428C185.428 7.09559 186.301 9.05295 187.065 10.2794L192.496 18.9698H197.3V0.310547H192.524V9.0268C192.524 10.2012 192.742 12.2106 192.742 12.2106H192.688C192.688 12.2106 191.814 10.2533 191.05 9.0268L185.646 0.310547H180.815V18.9698Z" fill="url(#paint10_linear_336_44)"></path> <path d="M201.391 18.9698H214V15.0553H206.167V11.532H212.117V7.61755H206.167V4.22504H213.618V0.310547H201.391V18.9698Z" fill="url(#paint11_linear_336_44)"></path> <defs> <linearGradient id="paint0_linear_336_44" x1="27.8207" y1="0.0159233" x2="40.7791" y2="11.8318" gradientUnits="userSpaceOnUse"> <stop stop-color="#9228FF"></stop> <stop offset="1" stop-color="#EC40FF"></stop> </linearGradient> <linearGradient id="paint1_linear_336_44" x1="29.7579" y1="0.0113305" x2="14.4663" y2="20.2038" gradientUnits="userSpaceOnUse"> <stop stop-color="#CD99FF"></stop> <stop offset="1" stop-color="#6D1CBA"></stop> </linearGradient> <linearGradient id="paint2_linear_336_44" x1="1.59627" y1="7.26353" x2="13.2631" y2="19.7509" gradientUnits="userSpaceOnUse"> <stop stop-color="#61A3ED"></stop> <stop offset="1" stop-color="#5048D8"></stop> </linearGradient> <linearGradient id="paint3_linear_336_44" x1="52.4567" y1="9.6415" x2="214.002" y2="9.6415" gradientUnits="userSpaceOnUse"> <stop stop-color="#52E5FE"></stop> <stop offset="0.372917" stop-color="#526CFF"></stop> <stop offset="0.617708" stop-color="#C247FC"></stop> <stop offset="1" stop-color="#FFA4FE"></stop> </linearGradient> <linearGradient id="paint4_linear_336_44" x1="52.4579" y1="9.6415" x2="214.003" y2="9.6415" gradientUnits="userSpaceOnUse"> <stop stop-color="#52E5FE"></stop> <stop offset="0.372917" stop-color="#526CFF"></stop> <stop offset="0.617708" stop-color="#C247FC"></stop> <stop offset="1" stop-color="#FFA4FE"></stop> </linearGradient> <linearGradient id="paint5_linear_336_44" x1="52.4537" y1="9.64277" x2="213.999" y2="9.64277" gradientUnits="userSpaceOnUse"> <stop stop-color="#52E5FE"></stop> <stop offset="0.372917" stop-color="#526CFF"></stop> <stop offset="0.617708" stop-color="#C247FC"></stop> <stop offset="1" stop-color="#FFA4FE"></stop> </linearGradient> <linearGradient id="paint6_linear_336_44" x1="52.4535" y1="9.64003" x2="213.999" y2="9.64003" gradientUnits="userSpaceOnUse"> <stop stop-color="#52E5FE"></stop> <stop offset="0.372917" stop-color="#526CFF"></stop> <stop offset="0.617708" stop-color="#C247FC"></stop> <stop offset="1" stop-color="#FFA4FE"></stop> </linearGradient> <linearGradient id="paint7_linear_336_44" x1="52.4551" y1="9.64003" x2="214" y2="9.64003" gradientUnits="userSpaceOnUse"> <stop stop-color="#52E5FE"></stop> <stop offset="0.372917" stop-color="#526CFF"></stop> <stop offset="0.617708" stop-color="#C247FC"></stop> <stop offset="1" stop-color="#FFA4FE"></stop> </linearGradient> <linearGradient id="paint8_linear_336_44" x1="52.4534" y1="9.64003" x2="213.999" y2="9.64003" gradientUnits="userSpaceOnUse"> <stop stop-color="#52E5FE"></stop> <stop offset="0.372917" stop-color="#526CFF"></stop> <stop offset="0.617708" stop-color="#C247FC"></stop> <stop offset="1" stop-color="#FFA4FE"></stop> </linearGradient> <linearGradient id="paint9_linear_336_44" x1="52.455" y1="9.64277" x2="214" y2="9.64277" gradientUnits="userSpaceOnUse"> <stop stop-color="#52E5FE"></stop> <stop offset="0.372917" stop-color="#526CFF"></stop> <stop offset="0.617708" stop-color="#C247FC"></stop> <stop offset="1" stop-color="#FFA4FE"></stop> </linearGradient> <linearGradient id="paint10_linear_336_44" x1="52.4553" y1="9.64003" x2="214" y2="9.64003" gradientUnits="userSpaceOnUse"> <stop stop-color="#52E5FE"></stop> <stop offset="0.372917" stop-color="#526CFF"></stop> <stop offset="0.617708" stop-color="#C247FC"></stop> <stop offset="1" stop-color="#FFA4FE"></stop> </linearGradient> <linearGradient id="paint11_linear_336_44" x1="52.4548" y1="9.64003" x2="214" y2="9.64003" gradientUnits="userSpaceOnUse"> <stop stop-color="#52E5FE"></stop> <stop offset="0.372917" stop-color="#526CFF"></stop> <stop offset="0.617708" stop-color="#C247FC"></stop> <stop offset="1" stop-color="#FFA4FE"></stop> </linearGradient> </defs> </svg> 